<svg id="Layer_1" xmlns="http://www.w3.org/2000/svg" viewBox="0 0 18.4 18.3"><style>.st0{fill:#424242;stroke:#424242;stroke-width:.8813;stroke-miterlimit:10}.st1{fill:none}</style><path class="st0" d="M15.4 9.1c0 1.7-.6 3.2-1.9 4.4L13 13c1.1-1.1 1.6-2.4 1.6-3.9 0-2.9-2.3-5.3-5.1-5.5v1.9L7.3 3.3l2.2-2.2V3c3.2.2 5.9 2.9 5.9 6.1zm-6.5 5.5c-2.9-.2-5.1-2.5-5.1-5.5 0-1.4.5-2.8 1.6-3.8l-.6-.5C3.7 6 3 7.6 3 9.1c0 3.3 2.6 6 5.8 6.2v1.9L11 15l-2.2-2.2.1 1.8z"/><path class="st1" d="M.1 0h18.3v18.3H.1z"/></svg>