<?xml version="1.0" encoding="utf-8"?>
<!-- Generator: Adobe Illustrator 21.0.0, SVG Export Plug-In . SVG Version: 6.00 Build 0)  -->
<svg version="1.1" id="Layer_1" xmlns="http://www.w3.org/2000/svg" xmlns:xlink="http://www.w3.org/1999/xlink" x="0px" y="0px"
	 viewBox="0 0 18.4 18.3" style="enable-background:new 0 0 18.4 18.3;" xml:space="preserve">
<style type="text/css">
	.st0{fill:#424242;stroke:#424242;stroke-width:0.8813;stroke-miterlimit:10;}
	.st1{fill:none;}
</style>
<path class="st0" d="M15.4,9.1c0,1.7-0.6,3.2-1.9,4.4L13,13c1.1-1.1,1.6-2.4,1.6-3.9c0-2.9-2.3-5.3-5.1-5.5v1.9L7.3,3.3l2.2-2.2V3
	C12.7,3.2,15.4,5.9,15.4,9.1z M8.9,14.6C6,14.4,3.8,12.1,3.8,9.1c0-1.4,0.5-2.8,1.6-3.8L4.8,4.8C3.7,6,3,7.6,3,9.1
	c0,3.3,2.6,6,5.8,6.2v1.9l2.2-2.2l-2.2-2.2L8.9,14.6z"/>
<rect x="0.1" y="0" class="st1" width="18.3" height="18.3"/>
</svg>
