<?xml version="1.0" encoding="utf-8"?>
<!-- Generator: Adobe Illustrator 21.0.0, SVG Export Plug-In . SVG Version: 6.00 Build 0)  -->
<svg version="1.1" id="Layer_2" xmlns="http://www.w3.org/2000/svg" xmlns:xlink="http://www.w3.org/1999/xlink" x="0px" y="0px"
	 viewBox="0 0 133.3 141.7" style="enable-background:new 0 0 133.3 141.7;" xml:space="preserve">
<style type="text/css">
	.st0{fill:#FFD366;}
</style>
<path class="st0" d="M36.1,95.7H11.6c-1.4,0-2.5-1.1-2.5-2.5V48.7c0-1.4,1.1-2.5,2.5-2.5h21.7c6.4,0,11.6,5.2,11.6,11.6v3.7
	c0,3.1-1.2,6-3.2,8.1c3.6,2,6.1,5.8,6.1,10.2V84C47.8,90.5,42.6,95.7,36.1,95.7z M14.1,90.7h22.1c3.7,0,6.6-3,6.6-6.6v-4.2
	c0-3.7-3-6.6-6.6-6.6H19.9c-1.4,0-2.5-1.1-2.5-2.5s1.1-2.5,2.5-2.5h13.4c3.7,0,6.6-3,6.6-6.6v-3.7c0-3.7-3-6.6-6.6-6.6H14.1V90.7z
	 M107,93V49.6c0-1.1-0.7-2-1.7-2.4c-1-0.3-2.2,0-2.8,0.9l-19,26l-19-26c-0.6-0.9-1.8-1.2-2.8-0.9c-1,0.3-1.7,1.3-1.7,2.4V93
	c0,1.4,1.1,2.5,2.5,2.5S65,94.4,65,93V57.3l16.5,22.6c0.5,0.6,1.2,1,2,1s1.5-0.4,2-1L102,57.3V93c0,1.4,1.1,2.5,2.5,2.5
	S107,94.4,107,93z M124.7,94.7V49.4c0-1.4-1.1-2.5-2.5-2.5s-2.5,1.1-2.5,2.5v45.3c0,1.4,1.1,2.5,2.5,2.5S124.7,96.1,124.7,94.7z
	 M51.2,33.7H83c0-1.7,0-3.3,0-5c-3.1-1.4-8.5-3.3-15.5-3.3c-7.4-0.1-13.2,2-16.3,3.3V33.7z M123.9,117.3v-12h-3v12
	c0,5.8-4.7,10.5-10.5,10.5H24.2c-5.8,0-10.5-4.7-10.5-10.5v-12h-3v12c0,7.4,6.1,13.5,13.5,13.5h86.3
	C117.9,130.8,123.9,124.8,123.9,117.3z M123.9,28.1c0-7.4-6.1-13.5-13.5-13.5H24.2c-7.4,0-13.5,6.1-13.5,13.5v13.6h3V28.1
	c0-5.8,4.7-10.5,10.5-10.5h86.3c5.8,0,10.5,4.7,10.5,10.5v13.6h3V28.1z M35.3,116.5c0.1-0.3,0.3-0.4,0.6-0.4c0.3,0,0.7,0.3,0.7,0.7
	c0,0.1,0,0.2-0.1,0.3c-0.3,0.9-0.9,1.5-1.7,2.1s-1.7,0.8-2.6,0.8c-1.3,0-2.5-0.4-3.4-1.3c-0.9-0.9-1.4-2-1.5-3.4
	c-0.1-0.9-0.1-1.9,0-2.8c0.1-1.4,0.6-2.5,1.5-3.4c0.9-0.9,2-1.4,3.4-1.4c1,0,1.8,0.3,2.6,0.8c0.8,0.5,1.4,1.2,1.7,2
	c0,0.1,0.1,0.2,0.1,0.3c0,0.4-0.3,0.6-0.7,0.6c-0.3,0-0.5-0.2-0.6-0.4c-0.5-1.2-1.7-2-3.1-2c-1,0-1.8,0.3-2.4,1s-1,1.5-1.1,2.5
	c-0.1,0.9-0.1,1.8,0,2.6c0.1,1,0.4,1.9,1.1,2.5s1.4,1,2.4,1C33.6,118.5,34.8,117.7,35.3,116.5z M45.7,118.3c0,0.3-0.1,0.4-0.3,0.6
	c-0.3,0.2-0.8,0.4-1.4,0.6c-0.6,0.2-1.3,0.3-2.1,0.3c-2.2,0-3.4-1.1-3.4-2.9c0-1.6,1.2-2.8,3.4-2.8c0.7,0,1.5,0.1,2.4,0.4v-0.7
	c0-1.4-0.7-2-2.1-2c-0.6,0-1.2,0.2-2,0.4c-0.5,0.2-1-0.1-1-0.5c0-0.3,0.2-0.5,0.4-0.6c0.7-0.4,1.6-0.5,2.7-0.5c2.1,0,3.3,1,3.3,3.2
	V118.3z M44.4,117.9v-2.2c-1-0.3-1.8-0.4-2.4-0.4c-1.2,0-2.1,0.6-2.1,1.5c0,1.1,0.7,1.7,2.2,1.7C43.3,118.6,44.1,118.2,44.4,117.9z
	 M50.1,119c0,0.4-0.3,0.7-0.7,0.7c-0.4,0-0.7-0.3-0.7-0.7v-10.7c0-0.4,0.3-0.7,0.7-0.7c0.4,0,0.7,0.3,0.7,0.7V119z M58.9,117.1
	c0.1-0.3,0.4-0.5,0.7-0.5c0.4,0,0.6,0.3,0.6,0.7c0,0.5-0.3,1.1-1,1.6c-0.6,0.6-1.5,0.9-2.5,0.9c-1.1,0-2-0.3-2.7-1
	c-0.7-0.7-1.1-1.5-1.1-2.5c-0.1-0.8-0.1-1.6,0-2.4c0.1-1,0.4-1.8,1.1-2.4c0.7-0.6,1.6-0.9,2.7-0.9c1.1,0,1.9,0.3,2.5,0.9
	c0.6,0.6,1,1.1,1,1.6c0,0.4-0.3,0.7-0.6,0.7c-0.3,0-0.5-0.2-0.7-0.5c-0.4-1-1.2-1.4-2.1-1.4c-1.4,0-2.3,0.8-2.4,2.2
	c-0.1,0.6-0.1,1.4,0,2.2c0.1,1.3,1,2.2,2.4,2.2C57.7,118.5,58.5,118,58.9,117.1z M62.5,111.4c0-0.4,0.3-0.7,0.7-0.7
	c0.4,0,0.7,0.3,0.7,0.7v4.9c0,1.3,0.9,2.1,2.3,2.1c0.9,0,1.7-0.2,2.3-0.6v-6.4c0-0.4,0.3-0.7,0.7-0.7c0.4,0,0.7,0.3,0.7,0.7v6.8
	c0,0.3-0.1,0.4-0.3,0.6c-1,0.7-2.1,1-3.4,1c-2.2,0-3.7-1.3-3.7-3.5V111.4z M74.4,119c0,0.4-0.3,0.7-0.7,0.7c-0.4,0-0.7-0.3-0.7-0.7
	v-10.7c0-0.4,0.3-0.7,0.7-0.7c0.4,0,0.7,0.3,0.7,0.7V119z M84.1,118.3c0,0.3-0.1,0.4-0.3,0.6c-0.3,0.2-0.8,0.4-1.4,0.6
	c-0.6,0.2-1.3,0.3-2.1,0.3c-2.2,0-3.4-1.1-3.4-2.9c0-1.6,1.2-2.8,3.4-2.8c0.7,0,1.5,0.1,2.4,0.4v-0.7c0-1.4-0.7-2-2.1-2
	c-0.6,0-1.2,0.2-2,0.4c-0.5,0.2-1-0.1-1-0.5c0-0.3,0.2-0.5,0.4-0.6c0.7-0.4,1.6-0.5,2.7-0.5c2.1,0,3.3,1,3.3,3.2V118.3z M82.8,117.9
	v-2.2c-1-0.3-1.8-0.4-2.4-0.4c-1.2,0-2.1,0.6-2.1,1.5c0,1.1,0.7,1.7,2.2,1.7C81.7,118.6,82.5,118.2,82.8,117.9z M89.6,119.8
	c-1.8,0-2.6-1.1-2.6-2.8v-7.4c0-0.4,0.3-0.7,0.7-0.7c0.4,0,0.7,0.3,0.7,0.7v1.4h2.6c0.3,0,0.6,0.3,0.6,0.6c0,0.3-0.3,0.6-0.6,0.6
	h-2.6v4.8c0,0.9,0.4,1.5,1.3,1.5c0.2,0,0.7-0.1,1.4-0.3c0.5-0.1,0.9,0.2,0.9,0.6c0,0.3-0.2,0.5-0.6,0.7
	C90.8,119.7,90.2,119.8,89.6,119.8z M101.2,116.4c-0.1,1-0.4,1.8-1.2,2.5c-0.7,0.6-1.6,1-2.6,1c-1,0-1.9-0.3-2.6-1s-1.1-1.5-1.2-2.5
	c-0.1-0.8-0.1-1.6,0-2.4c0.1-1,0.4-1.8,1.1-2.4c0.7-0.6,1.6-1,2.7-1s1.9,0.3,2.6,0.9c0.7,0.6,1.1,1.4,1.2,2.4
	C101.3,114.8,101.3,115.6,101.2,116.4z M95,116.3c0.1,1.3,1.1,2.2,2.4,2.2c1.4,0,2.3-0.9,2.4-2.2c0.1-0.7,0.1-1.5,0-2.2
	c-0.1-1.3-1-2.2-2.4-2.2s-2.3,0.9-2.4,2.2C95,114.8,95,115.6,95,116.3z M108.7,111.4c0,0.3-0.3,0.6-0.7,0.6c-0.1,0-0.3,0-0.6-0.1
	c-0.3-0.1-0.5-0.1-0.8-0.1c-0.9,0-1.4,0.5-1.4,1.5v5.6c0,0.4-0.3,0.7-0.7,0.7c-0.4,0-0.7-0.3-0.7-0.7v-5.7c0-1.7,1-2.7,2.8-2.7
	c0.6,0,1.1,0.1,1.5,0.2C108.5,110.9,108.7,111.1,108.7,111.4z"/>
</svg>
