<?xml version="1.0" encoding="utf-8"?>
<!-- Generator: Adobe Illustrator 21.0.0, SVG Export Plug-In . SVG Version: 6.00 Build 0)  -->
<svg version="1.1" id="Layer_2" xmlns="http://www.w3.org/2000/svg" xmlns:xlink="http://www.w3.org/1999/xlink" x="0px" y="0px"
	 viewBox="0 0 59.3 60" style="enable-background:new 0 0 59.3 60;" xml:space="preserve">
<style type="text/css">
	.st0{fill:#454545;}
</style>
<path class="st0" d="M15,40.9H3.4c-0.7,0-1.2-0.5-1.2-1.2V18.7c0-0.7,0.5-1.2,1.2-1.2h10.3c3,0,5.5,2.5,5.5,5.5v1.8
	c0,1.5-0.6,2.8-1.5,3.8c1.7,0.9,2.9,2.7,2.9,4.8v2C20.5,38.5,18.1,40.9,15,40.9z M4.6,38.6H15c1.8,0,3.1-1.4,3.1-3.1v-2
	c0-1.8-1.4-3.1-3.1-3.1H7.3c-0.7,0-1.2-0.5-1.2-1.2S6.7,28,7.3,28h6.3c1.8,0,3.1-1.4,3.1-3.1v-1.8c0-1.8-1.4-3.1-3.1-3.1H4.6V38.6z
	 M48.5,39.6V19.1c0-0.5-0.3-0.9-0.8-1.1c-0.5-0.1-1,0-1.3,0.4l-9,12.3l-9-12.3c-0.3-0.4-0.9-0.6-1.3-0.4s-0.8,0.6-0.8,1.1v20.5
	c0,0.7,0.5,1.2,1.2,1.2c0.7,0,1.2-0.5,1.2-1.2V22.7l7.8,10.7c0.2,0.3,0.6,0.5,0.9,0.5s0.7-0.2,0.9-0.5l7.8-10.7v16.9
	c0,0.7,0.5,1.2,1.2,1.2S48.5,40.3,48.5,39.6z M56.9,40.4V19c0-0.7-0.5-1.2-1.2-1.2s-1.2,0.5-1.2,1.2v21.4c0,0.7,0.5,1.2,1.2,1.2
	S56.9,41.1,56.9,40.4z M22.1,11.6h15.1c0-0.8,0-1.6,0-2.4c-1.5-0.7-4-1.6-7.3-1.6c-3.5,0-6.2,0.9-7.7,1.6V11.6z M56.5,51.1v-5.7
	h-1.4v5.7c0,2.7-2.2,5-5,5H9.4c-2.7,0-5-2.2-5-5v-5.7H3v5.7c0,3.5,2.9,6.4,6.4,6.4h40.8C53.7,57.5,56.5,54.7,56.5,51.1z M56.5,8.9
	c0-3.5-2.9-6.4-6.4-6.4H9.4C5.9,2.5,3,5.4,3,8.9v6.4h1.4V8.9c0-2.7,2.2-5,5-5h40.8c2.7,0,5,2.2,5,5v6.4h1.4L56.5,8.9L56.5,8.9z
	 M14.6,50.8c0-0.1,0.1-0.2,0.3-0.2c0.1,0,0.3,0.1,0.3,0.3c0,0,0,0.1,0,0.1c-0.1,0.4-0.4,0.7-0.8,1c-0.4,0.3-0.8,0.4-1.2,0.4
	c-0.6,0-1.2-0.2-1.6-0.6c-0.4-0.4-0.7-0.9-0.7-1.6c0-0.4,0-0.9,0-1.3c0-0.7,0.3-1.2,0.7-1.6c0.4-0.4,0.9-0.7,1.6-0.7
	c0.5,0,0.9,0.1,1.2,0.4s0.7,0.6,0.8,0.9c0,0,0,0.1,0,0.1c0,0.2-0.1,0.3-0.3,0.3c-0.1,0-0.2-0.1-0.3-0.2c-0.2-0.6-0.8-0.9-1.5-0.9
	c-0.5,0-0.9,0.1-1.1,0.5c-0.3,0.3-0.5,0.7-0.5,1.2c0,0.4,0,0.9,0,1.2c0,0.5,0.2,0.9,0.5,1.2s0.7,0.5,1.1,0.5
	C13.8,51.7,14.4,51.3,14.6,50.8z M19.5,51.6c0,0.1,0,0.2-0.1,0.3c-0.1,0.1-0.4,0.2-0.7,0.3c-0.3,0.1-0.6,0.1-1,0.1
	c-1,0-1.6-0.5-1.6-1.4c0-0.8,0.6-1.3,1.6-1.3c0.3,0,0.7,0,1.1,0.2v-0.3c0-0.7-0.3-0.9-1-0.9c-0.3,0-0.6,0.1-0.9,0.2
	c-0.2,0.1-0.5,0-0.5-0.2c0-0.1,0.1-0.2,0.2-0.3C17,48,17.4,48,17.9,48c1,0,1.6,0.5,1.6,1.5L19.5,51.6L19.5,51.6z M18.9,51.4v-1
	c-0.5-0.1-0.9-0.2-1.1-0.2c-0.6,0-1,0.3-1,0.7c0,0.5,0.3,0.8,1,0.8C18.4,51.8,18.8,51.6,18.9,51.4z M21.6,51.9
	c0,0.2-0.1,0.3-0.3,0.3S21,52.1,21,51.9v-5.1c0-0.2,0.1-0.3,0.3-0.3s0.3,0.1,0.3,0.3V51.9z M25.8,51c0-0.1,0.2-0.2,0.3-0.2
	c0.2,0,0.3,0.1,0.3,0.3c0,0.2-0.1,0.5-0.5,0.8c-0.3,0.3-0.7,0.4-1.2,0.4c-0.5,0-0.9-0.1-1.3-0.5c-0.3-0.3-0.5-0.7-0.5-1.2
	c0-0.4,0-0.8,0-1.1c0-0.5,0.2-0.9,0.5-1.1c0.3-0.3,0.8-0.4,1.3-0.4s0.9,0.1,1.2,0.4c0.3,0.3,0.5,0.5,0.5,0.8c0,0.2-0.1,0.3-0.3,0.3
	s-0.2-0.1-0.3-0.2c-0.2-0.5-0.6-0.7-1-0.7c-0.7,0-1.1,0.4-1.1,1c0,0.3,0,0.7,0,1c0,0.6,0.5,1,1.1,1C25.2,51.7,25.6,51.5,25.8,51z
	 M27.5,48.4c0-0.2,0.1-0.3,0.3-0.3c0.2,0,0.3,0.1,0.3,0.3v2.3c0,0.6,0.4,1,1.1,1c0.4,0,0.8-0.1,1.1-0.3v-3c0-0.2,0.1-0.3,0.3-0.3
	c0.2,0,0.3,0.1,0.3,0.3v3.2c0,0.1,0,0.2-0.1,0.3c-0.5,0.3-1,0.5-1.6,0.5c-1,0-1.8-0.6-1.8-1.7C27.5,50.7,27.5,48.4,27.5,48.4z
	 M33.1,51.9c0,0.2-0.1,0.3-0.3,0.3s-0.3-0.1-0.3-0.3v-5.1c0-0.2,0.1-0.3,0.3-0.3c0.2,0,0.3,0.1,0.3,0.3V51.9z M37.7,51.6
	c0,0.1,0,0.2-0.1,0.3c-0.1,0.1-0.4,0.2-0.7,0.3c-0.3,0.1-0.6,0.1-1,0.1c-1,0-1.6-0.5-1.6-1.4c0-0.8,0.6-1.3,1.6-1.3
	c0.3,0,0.7,0,1.1,0.2v-0.3c0-0.7-0.3-0.9-1-0.9c-0.3,0-0.6,0.1-0.9,0.2c-0.2,0.1-0.5,0-0.5-0.2c0-0.1,0.1-0.2,0.2-0.3
	c0.3-0.2,0.8-0.2,1.3-0.2c1,0,1.6,0.5,1.6,1.5L37.7,51.6L37.7,51.6z M37.1,51.4v-1c-0.5-0.1-0.9-0.2-1.1-0.2c-0.6,0-1,0.3-1,0.7
	c0,0.5,0.3,0.8,1,0.8C36.6,51.8,37,51.6,37.1,51.4z M40.3,52.3c-0.9,0-1.2-0.5-1.2-1.3v-3.5c0-0.2,0.1-0.3,0.3-0.3
	c0.2,0,0.3,0.1,0.3,0.3v0.7H41c0.1,0,0.3,0.1,0.3,0.3c0,0.1-0.1,0.3-0.3,0.3h-1.2V51c0,0.4,0.2,0.7,0.6,0.7c0.1,0,0.3,0,0.7-0.1
	c0.2,0,0.4,0.1,0.4,0.3c0,0.1-0.1,0.2-0.3,0.3C40.9,52.3,40.6,52.3,40.3,52.3z M45.8,50.7c0,0.5-0.2,0.9-0.6,1.2
	c-0.3,0.3-0.8,0.5-1.2,0.5s-0.9-0.1-1.2-0.5c-0.3-0.3-0.5-0.7-0.6-1.2c0-0.4,0-0.8,0-1.1c0-0.5,0.2-0.9,0.5-1.1
	c0.3-0.3,0.8-0.5,1.3-0.5s0.9,0.1,1.2,0.4c0.3,0.3,0.5,0.7,0.6,1.1C45.8,50,45.8,50.3,45.8,50.7z M42.9,50.7c0,0.6,0.5,1,1.1,1
	c0.7,0,1.1-0.4,1.1-1c0-0.3,0-0.7,0-1c0-0.6-0.5-1-1.1-1s-1.1,0.4-1.1,1C42.9,50,42.9,50.3,42.9,50.7z M49.4,48.4
	c0,0.1-0.1,0.3-0.3,0.3c0,0-0.1,0-0.3,0c-0.1,0-0.2,0-0.4,0c-0.4,0-0.7,0.2-0.7,0.7v2.7c0,0.2-0.1,0.3-0.3,0.3
	c-0.2,0-0.3-0.1-0.3-0.3v-2.7c0-0.8,0.5-1.3,1.3-1.3c0.3,0,0.5,0,0.7,0.1C49.3,48.1,49.4,48.2,49.4,48.4z"/>
</svg>
